# xmcd
#
# Track frame offsets:
#	150
#	31358
#	56104
#	74355
#	97361
#	120377
#	137321
#	162792
#	185873
#	207054
#	231366
#	247559
#	265953
#
# Disc length: 3784 seconds
# Revision: 0
# Processed by: cddbd v1.5.2PL0 Copyright (c) Steve Scherf et al.
# Submitted via: dBpowerAMP V12.0
#
DISCID=b60ec60d
DTITLE=Bettye LaVette - Things Have Changed
DYEAR=2018
DGENRE=Blues
TTITLE0=Things Have Changed
TTITLE1=It Ain't Me Babe
TTITLE2=Political World
TTITLE3=Don't Fall Apart on Me Tonight
TTITLE4=Seeing the Real You at Last
TTITLE5=Mama, You Been on My Mind
TTITLE6=An't Talkin'
TTITLE7=The Times They Are a Changin'
TTITLE8=What was it You Wanted
TTITLE9=Emotionally Yours
TTITLE10=Do Right to Me Baby (Do Unto Others)
TTITLE11=Going, Going, Gone
TTITLE12=Things Have Changed - radio edit
EXTD=
EXTT0=
EXTT1=
EXTT2=
EXTT3=
EXTT4=
EXTT5=
EXTT6=
EXTT7=
EXTT8=
EXTT9=
EXTT10=
EXTT11=
EXTT12=
PLAYORDER=
